<?xml version="1.0" encoding="UTF-8"?>
<svg version="1.1" viewBox="0 0 100 100" xmlns="http://www.w3.org/2000/svg">
	<linearGradient id="a" x1="30" x2="70" y1="30" y2="70" gradientUnits="userSpaceOnUse">
		<stop stop-color="#4682fa" offset="0"/>
		<stop stop-color="#fa00fa" offset="1"/>
	</linearGradient>
	<rect width="100" height="100" fill="none"/>
	<rect x="19.5" y="19.5" width="61" height="61" rx="0" fill="url(#a)"/>
	<rect x="15" y="15" width="70" height="70" ry="7" fill="none" stroke="#000" stroke-width="9"/>
	<rect x="25" y="2" width="5" height="12" rx="2"/><rect x="70" y="2" width="5" height="12" rx="2"/>
	<rect x="40" y="2" width="5" height="12" rx="2"/><rect x="55" y="2" width="5" height="12" rx="2"/>
	<rect x="25" y="86" width="5" height="12" rx="2"/><rect x="70" y="86" width="5" height="12" rx="2"/>
	<rect x="40" y="86" width="5" height="12" rx="2"/><rect x="55" y="86" width="5" height="12" rx="2"/>
	<rect transform="rotate(90)" x="25" y="-98" width="5" height="12" rx="2"/><rect transform="rotate(90)" x="70" y="-98" width="5" height="12" rx="2"/>
	<rect transform="rotate(90)" x="40" y="-98" width="5" height="12" rx="2"/><rect transform="rotate(90)" x="55" y="-98" width="5" height="12" rx="2"/>
	<rect transform="rotate(90)" x="25" y="-14" width="5" height="12" rx="2"/><rect transform="rotate(90)" x="70" y="-14" width="5" height="12" rx="2"/>
	<rect transform="rotate(90)" x="40" y="-14" width="5" height="12" rx="2"/><rect transform="rotate(90)" x="55" y="-14" width="5" height="12" rx="2"/>
</svg>
