<?xml version="1.0" encoding="UTF-8"?>
<svg version="1.1" viewBox="0 0 2048 2048" xmlns="http://www.w3.org/2000/svg">
	<rect y="920" width="488" height="90" fill="#181926"/>
	<rect x="1560" y="920" width="488" height="90" fill="#181926"/>
	<path d="m0 920h488z" stroke="#1e66f5" stroke-width="10"/>
	<path d="m1560 920h488z" stroke="#1e66f5" stroke-width="10"/>
	<g fill="#181926">
		<rect x="490" y="1448" width="150" height="600"/>
		<rect x="1408" y="1448" width="150" height="600"/>
		<rect x="640" y="1608" width="120" height="440"/>
		<rect x="1288" y="1608" width="120" height="440"/>
		<path d="m803 0s-257 81.5-166 247c37.6 68.6 15.1 151 15.1 151s31.8 47.4 132-6.6c110-59.3 59.1-181 59.1-181s131-200-40.3-210z"/>
		<path d="m1245 0s257 81.5 166 247c-38 68.6-15 151-15 151s-32 47.4-132-6.6c-111-59.3-60-181-60-181s-130-200 41-210z"/>
	</g>
</svg>
