<?xml version="1.0" encoding="UTF-8"?>
<svg version="1.1" viewBox="0 0 2048 2048" xmlns="http://www.w3.org/2000/svg" xmlns:xlink="http://www.w3.org/1999/xlink">
	<defs>
		<linearGradient id="a" x1="193" x2="609" y1="147" y2="147" gradientTransform="scale(.866 1.15)" gradientUnits="userSpaceOnUse">
			<stop stop-color="#4682FA" offset="0"/>
			<stop stop-color="#FA00FA" offset="1"/>
		</linearGradient>
		<linearGradient id="b" x1="193" x2="609" y1="147" y2="147" gradientTransform="scale(.866 1.15)" gradientUnits="userSpaceOnUse" xlink:href="#a"/>
		<linearGradient id="c" x1="30" x2="70" y1="30" y2="70" gradientTransform="translate(130,65)" gradientUnits="userSpaceOnUse">
			<stop stop-color="#4682fa" offset="0"/>
			<stop stop-color="#fa00fa" offset="1"/>
		</linearGradient>
	</defs>
	<path d="m986 1170-52.5 30-15 37.5 15 52.5 90 75 90-75 15-52.5-15-37.5-52.5-30-37.5 30z" fill="#fff"/>
	<g transform="translate(844,1150)">
		<rect x="130" y="65" width="100" height="100" fill="none"/>
		<rect x="140" y="75" width="80" height="80" ry="8" stroke="#000" stroke-width="9"/>
		<rect x="150" y="84.5" width="61" height="61" rx="0" fill="url(#c)"/>
		<rect x="155" y="67" width="5" height="12" rx="2"/>
		<rect x="200" y="67" width="5" height="12" rx="2"/>
		<rect x="170" y="67" width="5" height="12" rx="2"/>
		<rect x="185" y="67" width="5" height="12" rx="2"/>
		<rect x="155" y="151" width="5" height="12" rx="2"/>
		<rect x="200" y="151" width="5" height="12" rx="2"/>
		<rect x="170" y="151" width="5" height="12" rx="2"/>
		<rect x="185" y="151" width="5" height="12" rx="2"/>
		<rect transform="rotate(90)" x="90" y="-228" width="5" height="12" rx="2"/>
		<rect transform="rotate(90)" x="135" y="-228" width="5" height="12" rx="2"/>
		<rect transform="rotate(90)" x="105" y="-228" width="5" height="12" rx="2"/>
		<rect transform="rotate(90)" x="120" y="-228" width="5" height="12" rx="2"/>
		<rect transform="rotate(90)" x="90" y="-144" width="5" height="12" rx="2"/>
		<rect transform="rotate(90)" x="135" y="-144" width="5" height="12" rx="2"/>
		<rect transform="rotate(90)" x="105" y="-144" width="5" height="12" rx="2"/>
		<rect transform="rotate(90)" x="120" y="-144" width="5" height="12" rx="2"/>
	</g>
	<g fill="#fff" font-family="'Iosevka SS04'" font-size="53.3px" font-weight="bold" text-anchor="end">
		<text x="406.66656" y="1589.2" text-align="end" style="line-height:1" xml:space="preserve"><tspan x="406.66656" y="1589.2">REMILIA YUENAN</tspan></text>
		<text x="2016.6665" y="1589.2" text-align="end" style="line-height:1" xml:space="preserve"><tspan x="2016.6665" y="1589.2">REMILIA YUENAN</tspan></text>
	</g>
	<g transform="matrix(4.8 0 0 4.8 -2673 -3778)">
		<rect x="553" y="1016" width="100" height="100" fill="none"/>
		<polygon transform="translate(553 1016)" points="50 10 47 18 53 18" fill="url(#a)"/>
		<polygon transform="translate(553 1016)" points="31 63 28 57 72 57 69 63" fill="#fa00fa"/>
		<polygon transform="translate(553 1016)" points="21 43 18 37 82 37 79 43" fill="#4682fa"/>
		<polygon transform="translate(553 1016)" points="26 53 23 47 77 47 74 53" fill="#fff"/>
		<g transform="translate(553 1016)" fill="#fff" fill-rule="evenodd">
			<polygon points="44 36 56 36 53 20 47 20"/>
			<polygon points="41 18 44 16 56 16 56 26 44 26 41 24"/>
		</g>
		<circle cx="603" cy="1066" r="18"/>
		<circle cx="603" cy="1066" r="15" fill="#fff"/>
		<g transform="translate(553 1016)" fill="none" stroke="#000" stroke-width="3">
			<line x1="38" x2="62" y1="38" y2="62"/>
			<line x1="50" x2="34" y1="50" y2="50"/>
			<line x1="50" x2="50" y1="50" y2="34"/>
		</g>
		<g transform="translate(553 1016)" fill="none" stroke="#fff" stroke-width="4">
			<line x1="30" x2="20" y1="30" y2="20"/>
			<line x1="70" x2="80" y1="30" y2="20"/>
			<line x1="80" x2="70" y1="80" y2="70"/>
			<line x1="20" x2="30" y1="80" y2="70"/>
		</g>
	</g>
	<g transform="matrix(4.8 0 0 4.8 -1063 -3778)">
		<rect x="553" y="1016" width="100" height="100" fill="none"/>
		<polygon transform="translate(553 1016)" points="47 18 53 18 50 10" fill="url(#b)"/>
		<polygon transform="translate(553 1016)" points="28 57 72 57 69 63 31 63" fill="#fa00fa"/>
		<polygon transform="translate(553 1016)" points="18 37 82 37 79 43 21 43" fill="#4682fa"/>
		<polygon transform="translate(553 1016)" points="23 47 77 47 74 53 26 53" fill="#fff"/>
		<g transform="translate(553 1016)" fill="#fff" fill-rule="evenodd">
			<polygon points="56 36 53 20 47 20 44 36"/>
			<polygon points="44 16 56 16 56 26 44 26 41 24 41 18"/>
		</g>
		<circle cx="603" cy="1066" r="18"/>
		<circle cx="603" cy="1066" r="15" fill="#fff"/>
		<g transform="translate(553 1016)" fill="none" stroke="#000" stroke-width="3">
			<line x1="38" x2="62" y1="38" y2="62"/>
			<line x1="50" x2="34" y1="50" y2="50"/>
			<line x1="50" x2="50" y1="50" y2="34"/>
		</g>
		<g transform="translate(553 1016)" fill="none" stroke="#fff" stroke-width="4">
			<line x1="30" x2="20" y1="30" y2="20"/>
			<line x1="70" x2="80" y1="30" y2="20"/>
			<line x1="80" x2="70" y1="80" y2="70"/>
			<line x1="20" x2="30" y1="80" y2="70"/>
		</g>
	</g>
</svg>
