<?xml version="1.0" encoding="UTF-8"?>
<svg version="1.1" viewBox="0 0 2048 2048" xmlns="http://www.w3.org/2000/svg">
	<linearGradient id="a" x1="489" x2="1560" y1="512" y2="512" gradientTransform="translate(0 966)" gradientUnits="userSpaceOnUse">
		<stop stop-color="#4682fa" offset=".5"/>
		<stop stop-color="#fa00fa" offset=".5"/>
	</linearGradient>
	<g opacity=".9">
		<path d="m970 621c-0.3-0.2-10-0.7-21.5-1.1s-31.8-1.3-45-2.1c-61.9-3.9-71.9-4.4-85-5-20.5-0.8-35-1.4-47.8-2-39-1.9-81.6-3.5-103-4-13.8-0.4-29.7-0.8-35.5-1s-40.8-0.4-77.8-0.4l-67.2-0.1v-43h24.5c27.4 0 34.8-0.9 68.9-8.1 34.9-7.4 47.6-11.3 84.1-25.6 44.3-17.5 51.6-20.4 57-22.8 2.7-1.3 9.5-4.2 15-6.5 19.2-8.1 40.1-18.2 50.7-24.7 20.1-12 42-20.5 69.1-26.7 35.6-8.2 33.2-8.1 168-8.1 135 0 132-0.1 168 8.1 27 6.2 49 14.7 69 26.7 10 6.5 31 16.6 51 24.7 5 2.3 12 5.2 15 6.5 5 2.4 12 5.3 57 22.8 36 14.3 49 18.2 84 25.6 34 7.2 41 8.1 68 8.1h25v43l-67 0.1c-37 0-72 0.2-78 0.4s-22 0.6-35 1c-22 0.5-64 2.1-104 4-18 0.8-31 1.4-47 2-9 0.4-26 1.3-38 2.1-13 0.7-35 2.1-49 2.9s-29 1.7-34 2c-11 0.7-138 1.9-139 1.2z" fill="url(#a)"/>
		<path d="m1015 470-14 7.5-3.4 9.5 3.4 13 23 19 22-19 4-13-4-9.5-13-7.5-9 7.5z" fill="#fff"/>
	</g>
</svg>
