<?xml version="1.0" encoding="UTF-8"?>
<svg version="1.1" viewBox="0 0 2048 2048" xmlns="http://www.w3.org/2000/svg">
	<defs>
		<linearGradient id="a" x1="1024" x2="1024" y2="1180" gradientUnits="userSpaceOnUse">
			<stop stop-color="#1e66f5" offset=".5"/>
			<stop stop-color="#ea76cb" offset=".5"/>
		</linearGradient>
	</defs>
	<path d="m891 450c-1.6-0.1-3 0-4.4 0.1-10.2 0.8-18.6 2.7-32.7 7.1-22.2 6.9-40.9 20.2-55.1 39.1-8.3 10.9-12.7 14.3-23 17.8-4.1 1.4-10.1 3.7-13.4 5.1-13.7 6.1-64.9 16.4-112 22.5-12.9 1.7-29.4 3.9-36.5 5.1-7.2 1.1-26.9 4-43.8 6.4-30 4.4-31.6 4.5-55.8 4.5h-24.9v76.1l5.3-0.5c2.8-0.3 10.8-1.1 17.7-1.6 6.9-0.6 24.9-2.2 40-3.5 92-8.2 104-8.8 202-8.6 87.7 0.1 129 1 181 3.7 20.6 1.1 54.5 1.7 88.5 1.6 34 0.1 68-0.5 88-1.6 52-2.7 94-3.6 181-3.7 98-0.2 110 0.4 202 8.6 15 1.3 33 2.9 40 3.5 7 0.5 15 1.3 18 1.6l5 0.5v-76.1h-25c-24 0-26-0.1-56-4.5-17-2.4-36-5.3-44-6.4-7-1.2-23-3.4-36-5.1-47-6.1-98-16.4-112-22.5-3-1.4-9-3.7-13-5.1-10-3.5-15-6.9-23-17.8-14-18.9-33-32.2-55-39.1-14-4.4-23-6.3-33-7.1-1-0.1-3-0.2-4-0.1-11 0.2-27 4.1-54 12.8-14 4.4-30 9.9-36 10.9-18 2.8-30 4.1-43 4.1s-25.2-1.3-43-4.1c-6.4-1-22.5-6.5-36-10.9-26.9-8.7-42.9-12.6-53.9-12.8z" fill="#181926" stroke="url(#a)" stroke-width="10"/>
	<g fill="#eff1f5">
		<path d="m984 610 40-40 40 40z"/>
		<path d="m503 573v40a50 20 0 0 0 50-20 50 20 0 0 0-50-20z"/>
		<path d="m1544 573v40a50 20 0 0 1-50-20 50 20 0 0 1 50-20z"/>
	</g>
</svg>
