<?xml version="1.0" encoding="utf-8"?>
<svg version="1.1" xmlns="http://www.w3.org/2000/svg" viewBox="0 0 100 100">
	<rect fill="none" width="100" height="100" />
	<linearGradient id="horn" x1="20" y1="20" x2="80" y2="20">
		<stop offset="0" stop-color="#4682FA" />
		<stop offset="1" stop-color="#FA00FA" />
	</linearGradient>
	<polygon fill="url(#horn)" points="50,10 47,18 53,18" />
	<polygon fill="#FA00FA" points="69,63 31,63 28,57 72,57" />
	<polygon fill="#4682FA" points="79,43 21,43 18,37 82,37" />
	<polygon fill="white" points="74,53 26,53 23,47 77,47" />
	<g fill-rule="evenodd" fill="white">
		<polygon points="47,20 44,36 56,36 53,20" />
		<polygon points="56,26 44,26 41,24 41,18 44,16 56,16" />
	</g><circle cx="50" cy="50" r="18" />
	<circle fill="white" cx="50" cy="50" r="15" />
	<g fill="none" stroke="black" stroke-width="3">
		<line x1="38" y1="38" x2="62" y2="62" />
		<line x1="50" y1="50" x2="34" y2="50" />
		<line x1="50" y1="50" x2="50" y2="34" />
	</g>
	<g fill="none" stroke="white" stroke-width="4">
		<line x1="30" y1="30" x2="20" y2="20" />
		<line x1="70" y1="30" x2="80" y2="20" />
		<line x1="80" y1="80" x2="70" y2="70" />
		<line x1="20" y1="80" x2="30" y2="70" />
	</g>
</svg>
