<?xml version="1.0" encoding="UTF-8"?>
<svg width="1920" height="1080" version="1.1" viewBox="0 0 256 144" xmlns="http://www.w3.org/2000/svg">
	<rect width="256" height="144" stroke-width="12"/>
	<polygon transform="translate(78,27)" points="47 18 53 18 50 10" fill="#8839ef"/>
	<polygon transform="translate(78,27)" points="82 37 79 43 21 43 18 37" fill="#1e66f5"/>
	<polygon transform="translate(78,27)" points="77 47 74 53 26 53 23 47" fill="#eff1f5"/>
	<polygon transform="translate(78,27)" points="72 57 69 63 31 63 28 57" fill="#ea76cb"/>
	<g transform="translate(78,27)" fill="#eff1f5" fill-rule="evenodd">
		<polygon points="53 20 47 20 44 36 56 36"/>
		<polygon points="44 26 41 24 41 18 44 16 56 16 56 26"/>
	</g>
	<g transform="translate(78,27)" fill="none" stroke="#181926" stroke-width="3">
		<circle cx="50" cy="50" r="16.5" fill="#eff1f5"/>
		<line x1="38" x2="62" y1="38" y2="62"/>
		<line x1="50" x2="34" y1="50" y2="50"/>
		<line x1="50" x2="50" y1="50" y2="34"/>
	</g>
	<g transform="translate(78,27)" fill="none" stroke="#eff1f5" stroke-width="4">
		<line x1="30" x2="20" y1="30" y2="20"/>
		<line x1="70" x2="80" y1="30" y2="20"/>
		<line x1="80" x2="70" y1="80" y2="70"/>
		<line x1="20" x2="30" y1="80" y2="70"/>
	</g>
</svg>
