<?xml version="1.0" encoding="UTF-8"?>
<svg version="1.1" viewBox="0 0 1600 900" xmlns="http://www.w3.org/2000/svg">
	<linearGradient id="a" x1="54.3" x2="747" y1="701" y2="701" gradientTransform="scale(.866 1.15)"
		gradientUnits="userSpaceOnUse">
		<stop stop-color="#4682FA" offset="0" />
		<stop stop-color="#FA00FA" offset="1" />
	</linearGradient>
	<rect width="1600" height="900" fill="#181818" stroke-width="12" />
	<rect x="550" y="200" width="500" height="500" fill="none" stroke-width="5" />
	<g transform="matrix(5,0,0,5,550,200)" fill="none" stroke="#fff" stroke-width="4">
		<line x1="30" x2="20" y1="30" y2="20" />
		<line x1="70" x2="80" y1="30" y2="20" />
		<line x1="80" x2="70" y1="80" y2="70" />
		<line x1="20" x2="30" y1="80" y2="70" />
	</g>
	<polygon transform="matrix(5,0,0,5,550,200)" points="31 63 28 57 72 57 69 63" fill="#fa00fa" />
	<polygon transform="matrix(5,0,0,5,550,200)" points="21 43 18 37 82 37 79 43" fill="#4682fa" />
	<polygon transform="matrix(5,0,0,5,550,200)" points="26 53 23 47 77 47 74 53" fill="#fff" />
	<polygon transform="matrix(5,0,0,5,550,200)" points="50 10 47 18 53 18" fill="url(#a)" />
	<g transform="matrix(5,0,0,5,550,200)" fill="#fff" fill-rule="evenodd">
		<polygon points="44 36 56 36 53 20 47 20" />
		<polygon points="41 24 41 18 44 16 44 26" />
		<rect x="44" y="16" width="12" height="10" />
	</g>
	<circle cx="800" cy="450" r="90" stroke-width="5" />
	<circle cx="800" cy="450" r="75" fill="#fff" stroke-width="5" />
	<g transform="matrix(5,0,0,5,550,200)" fill="none" stroke="#000" stroke-width="3">
		<line x1="38" x2="62" y1="38" y2="62" />
		<line x1="50" x2="34" y1="50" y2="50" />
		<line x1="50" x2="50" y1="50" y2="34" />
	</g>
</svg>